REM DIRINDEX 1\2,1\4,1\3\5,1\3\6,1\3\7
REM DIRNAME folder01,folder02,folder03,folder04,folder05,folder06,folder07
TITLE ""
FILE "CD1Track26.mp3" MP3
  TRACK 01 AUDIO
    TITLE "0:"
    INDEX 01 00:00:00
  TRACK 02 AUDIO
    TITLE "5:cjc081_0436"
    INDEX 01 00:00:25
  TRACK 03 AUDIO
    TITLE "0:"
    INDEX 01 00:02:02
  TRACK 04 AUDIO
    TITLE "6:cjc081_0437"
    INDEX 01 00:02:45
  TRACK 05 AUDIO
    TITLE "0:"
    INDEX 01 00:04:64
  TRACK 06 AUDIO
    TITLE "5:cjc081_0438"
    INDEX 01 00:05:32
  TRACK 07 AUDIO
    TITLE "0:"
    INDEX 01 00:06:67
  TRACK 08 AUDIO
    TITLE "6:cjc081_0439"
    INDEX 01 00:07:35
  TRACK 09 AUDIO
    TITLE "0:"
    INDEX 01 00:08:52
  TRACK 10 AUDIO
    TITLE "5:cjc081_0440"
    INDEX 01 00:09:18
  TRACK 11 AUDIO
    TITLE "0:"
    INDEX 01 00:10:31
  TRACK 12 AUDIO
    TITLE "6:cjc081_0441"
    INDEX 01 00:10:74
  TRACK 13 AUDIO
    TITLE "0:"
    INDEX 01 00:12:26
  TRACK 14 AUDIO
    TITLE "5:cjc081_0442"
    INDEX 01 00:12:71
  TRACK 15 AUDIO
    TITLE "0:"
    INDEX 01 00:14:33
  TRACK 16 AUDIO
    TITLE "6:cjc081_0443"
    INDEX 01 00:15:05
  TRACK 17 AUDIO
    TITLE "0:"
    INDEX 01 00:16:48
  TRACK 18 AUDIO
    TITLE "5:cjc081_0444"
    INDEX 01 00:17:20
  TRACK 19 AUDIO
    TITLE "0:"
    INDEX 01 00:19:03
  TRACK 20 AUDIO
    TITLE "6:cjc081_0445"
    INDEX 01 00:19:50
  TRACK 21 AUDIO
    TITLE "0:"
    INDEX 01 00:22:34
  TRACK 22 AUDIO
    TITLE "5:cjc081_0446"
    INDEX 01 00:23:03
  TRACK 23 AUDIO
    TITLE "0:"
    INDEX 01 00:24:55
  TRACK 24 AUDIO
    TITLE "6:cjc081_0447"
    INDEX 01 00:25:27
  TRACK 25 AUDIO
    TITLE "0:"
    INDEX 01 00:26:50
  TRACK 26 AUDIO
    TITLE "5:cjc081_0448"
    INDEX 01 00:27:22
  TRACK 27 AUDIO
    TITLE "0:"
    INDEX 01 00:28:74
  TRACK 28 AUDIO
    TITLE "6:cjc081_0449"
    INDEX 01 00:29:42
  TRACK 29 AUDIO
    TITLE "0:"
    INDEX 01 00:30:40
  TRACK 30 AUDIO
    TITLE "5:cjc081_0450"
    INDEX 01 00:31:12
  TRACK 31 AUDIO
    TITLE "0:"
    INDEX 01 00:32:45
  TRACK 32 AUDIO
    TITLE "6:cjc081_0451"
    INDEX 01 00:33:17
  TRACK 33 AUDIO
    TITLE "0:"
    INDEX 01 00:35:10
  TRACK 34 AUDIO
    TITLE "5:cjc081_0452"
    INDEX 01 00:35:59
  TRACK 35 AUDIO
    TITLE "0:"
    INDEX 01 00:37:08
  TRACK 36 AUDIO
    TITLE "6:cjc081_0453"
    INDEX 01 00:37:56
  TRACK 37 AUDIO
    TITLE "0:"
    INDEX 01 00:38:63
  TRACK 38 AUDIO
    TITLE "5:cjc081_0454"
    INDEX 01 00:39:31
  TRACK 39 AUDIO
    TITLE "0:"
    INDEX 01 00:40:64
  TRACK 40 AUDIO
    TITLE "6:cjc081_0455"
    INDEX 01 00:41:34
  TRACK 41 AUDIO
    TITLE "0:"
    INDEX 01 00:45:06
  TRACK 42 AUDIO
    TITLE "5:cjc081_0456"
    INDEX 01 00:45:47
  TRACK 43 AUDIO
    TITLE "0:"
    INDEX 01 00:47:05
  TRACK 44 AUDIO
    TITLE "6:cjc081_0457"
    INDEX 01 00:47:54
  TRACK 45 AUDIO
    TITLE "0:"
    INDEX 01 00:49:04
  TRACK 46 AUDIO
    TITLE "5:cjc081_0458"
    INDEX 01 00:49:45
  TRACK 47 AUDIO
    TITLE "0:"
    INDEX 01 00:51:05
  TRACK 48 AUDIO
    TITLE "6:cjc081_0459"
    INDEX 01 00:51:50
  TRACK 49 AUDIO
    TITLE "0:"
    INDEX 01 00:53:41
  TRACK 50 AUDIO
    TITLE "5:cjc081_0460"
    INDEX 01 00:54:11
  TRACK 51 AUDIO
    TITLE "0:"
    INDEX 01 00:55:42
  TRACK 52 AUDIO
    TITLE "6:cjc081_0461"
    INDEX 01 00:56:14
  TRACK 53 AUDIO
    TITLE "0:"
    INDEX 01 00:57:31
  TRACK 54 AUDIO
    TITLE "5:cjc081_0462"
    INDEX 01 00:57:72
  TRACK 55 AUDIO
    TITLE "0:"
    INDEX 01 00:59:04
  TRACK 56 AUDIO
    TITLE "6:cjc081_0463"
    INDEX 01 00:59:51
  TRACK 57 AUDIO
    TITLE "0:"
    INDEX 01 01:01:36
  TRACK 58 AUDIO
    TITLE "5:cjc081_0464"
    INDEX 01 01:02:05
  TRACK 59 AUDIO
    TITLE "0:"
    INDEX 01 01:03:31
  TRACK 60 AUDIO
    TITLE "6:cjc081_0465"
    INDEX 01 01:04:00
  TRACK 61 AUDIO
    TITLE "0:"
    INDEX 01 01:05:30
  TRACK 62 AUDIO
    TITLE "7:cjc081_0466"
    INDEX 01 01:06:69
  TRACK 63 AUDIO
    TITLE "0:"
    INDEX 01 01:17:18
